<?xml version="1.0" encoding="UTF-8" standalone="no"?>
<!DOCTYPE svg PUBLIC "-//W3C//DTD SVG 1.1//EN"
 "http://www.w3.org/Graphics/SVG/1.1/DTD/svg11.dtd">
<!-- Generated by graphviz version 2.38.0 (20140413.2041)
 -->
<!-- Title: x Pages: 1 -->
<svg width="1045pt" height="1052pt"
 viewBox="0.00 0.00 1045.32 1052.00" xmlns="http://www.w3.org/2000/svg" xmlns:xlink="http://www.w3.org/1999/xlink">
<g id="graph0" class="graph" transform="scale(1 1) rotate(0) translate(4 1048)">
<title>x</title>
<polygon fill="white" stroke="none" points="-4,4 -4,-1048 1041.32,-1048 1041.32,4 -4,4"/>
<!-- content_fetch_on_complete -->
<g id="node1" class="node"><title>content_fetch_on_complete</title>
<ellipse fill="none" stroke="black" cx="854.985" cy="-450" rx="139.175" ry="18"/>
<text text-anchor="middle" x="854.985" y="-446.3" font-family="Times,serif" font-size="14.00">content_fetch_on_complete</text>
</g>
<!-- content_fetch_on_write_complete -->
<g id="node2" class="node"><title>content_fetch_on_write_complete</title>
<ellipse fill="none" stroke="black" cx="868.985" cy="-378" rx="168.17" ry="18"/>
<text text-anchor="middle" x="868.985" y="-374.3" font-family="Times,serif" font-size="14.00">content_fetch_on_write_complete</text>
</g>
<!-- content_fetch_on_complete&#45;&gt;content_fetch_on_write_complete -->
<g id="edge1" class="edge"><title>content_fetch_on_complete&#45;&gt;content_fetch_on_write_complete</title>
<path fill="none" stroke="black" stroke-dasharray="1,5" d="M858.446,-431.697C859.988,-423.983 861.843,-414.712 863.563,-406.112"/>
<polygon fill="black" stroke="black" points="867.035,-406.597 865.564,-396.104 860.171,-405.224 867.035,-406.597"/>
</g>
<!-- delta_superblock_fetch_on_complete -->
<g id="node3" class="node"><title>delta_superblock_fetch_on_complete</title>
<ellipse fill="none" stroke="black" cx="379.985" cy="-810" rx="183.068" ry="18"/>
<text text-anchor="middle" x="379.985" y="-806.3" font-family="Times,serif" font-size="14.00">delta_superblock_fetch_on_complete</text>
</g>
<!-- delta_superblock_process -->
<g id="node4" class="node"><title>delta_superblock_process</title>
<ellipse fill="none" stroke="black" cx="431.985" cy="-738" rx="131.877" ry="18"/>
<text text-anchor="middle" x="431.985" y="-734.3" font-family="Times,serif" font-size="14.00">delta_superblock_process</text>
</g>
<!-- delta_superblock_fetch_on_complete&#45;&gt;delta_superblock_process -->
<g id="edge2" class="edge"><title>delta_superblock_fetch_on_complete&#45;&gt;delta_superblock_process</title>
<path fill="none" stroke="black" d="M392.839,-791.697C399.01,-783.389 406.522,-773.277 413.309,-764.141"/>
<polygon fill="black" stroke="black" points="416.125,-766.219 419.279,-756.104 410.506,-762.045 416.125,-766.219"/>
</g>
<!-- process_one_static_delta -->
<g id="node5" class="node"><title>process_one_static_delta</title>
<ellipse fill="none" stroke="black" cx="483.985" cy="-666" rx="128.077" ry="18"/>
<text text-anchor="middle" x="483.985" y="-662.3" font-family="Times,serif" font-size="14.00">process_one_static_delta</text>
</g>
<!-- delta_superblock_process&#45;&gt;process_one_static_delta -->
<g id="edge3" class="edge"><title>delta_superblock_process&#45;&gt;process_one_static_delta</title>
<path fill="none" stroke="black" d="M444.573,-720.055C450.74,-711.753 458.294,-701.584 465.133,-692.378"/>
<polygon fill="black" stroke="black" points="467.998,-694.39 471.152,-684.275 462.379,-690.216 467.998,-694.39"/>
</g>
<!-- queue_scan_one_metadata_object -->
<g id="node6" class="node"><title>queue_scan_one_metadata_object</title>
<ellipse fill="none" stroke="black" cx="168.985" cy="-666" rx="168.97" ry="18"/>
<text text-anchor="middle" x="168.985" y="-662.3" font-family="Times,serif" font-size="14.00">queue_scan_one_metadata_object</text>
</g>
<!-- delta_superblock_process&#45;&gt;queue_scan_one_metadata_object -->
<g id="edge4" class="edge"><title>delta_superblock_process&#45;&gt;queue_scan_one_metadata_object</title>
<path fill="none" stroke="black" d="M374.594,-721.725C334.491,-711.051 280.734,-696.743 238.246,-685.435"/>
<polygon fill="black" stroke="black" points="239.098,-682.039 228.534,-682.85 237.297,-688.804 239.098,-682.039"/>
</g>
<!-- on_metadata_written -->
<g id="node13" class="node"><title>on_metadata_written</title>
<ellipse fill="none" stroke="black" cx="362.985" cy="-378" rx="109.681" ry="18"/>
<text text-anchor="middle" x="362.985" y="-374.3" font-family="Times,serif" font-size="14.00">on_metadata_written</text>
</g>
<!-- process_one_static_delta&#45;&gt;on_metadata_written -->
<g id="edge14" class="edge"><title>process_one_static_delta&#45;&gt;on_metadata_written</title>
<path fill="none" stroke="black" stroke-dasharray="1,5" d="M380.006,-655.392C347.365,-647.861 313.288,-634.735 287.985,-612 251.1,-578.858 243.233,-550.672 259.985,-504 274.728,-462.923 309.453,-425.709 334.512,-402.771"/>
<polygon fill="black" stroke="black" points="337.146,-405.112 342.271,-395.839 332.482,-399.892 337.146,-405.112"/>
</g>
<!-- on_static_delta_written -->
<g id="node15" class="node"><title>on_static_delta_written</title>
<ellipse fill="none" stroke="black" cx="388.985" cy="-522" rx="120.479" ry="18"/>
<text text-anchor="middle" x="388.985" y="-518.3" font-family="Times,serif" font-size="14.00">on_static_delta_written</text>
</g>
<!-- process_one_static_delta&#45;&gt;on_static_delta_written -->
<g id="edge15" class="edge"><title>process_one_static_delta&#45;&gt;on_static_delta_written</title>
<path fill="none" stroke="black" stroke-dasharray="1,5" d="M403.479,-651.935C359.445,-642.969 311.21,-629.52 297.985,-612 288.345,-599.23 290.011,-589.872 297.985,-576 305.982,-562.087 319.193,-551.484 333.103,-543.557"/>
<polygon fill="black" stroke="black" points="335.072,-546.476 342.296,-538.727 331.816,-540.28 335.072,-546.476"/>
</g>
<!-- process_one_static_delta_fallback -->
<g id="node16" class="node"><title>process_one_static_delta_fallback</title>
<ellipse fill="none" stroke="black" cx="848.985" cy="-594" rx="169.77" ry="18"/>
<text text-anchor="middle" x="848.985" y="-590.3" font-family="Times,serif" font-size="14.00">process_one_static_delta_fallback</text>
</g>
<!-- process_one_static_delta&#45;&gt;process_one_static_delta_fallback -->
<g id="edge16" class="edge"><title>process_one_static_delta&#45;&gt;process_one_static_delta_fallback</title>
<path fill="none" stroke="black" d="M556.534,-651.087C615.243,-639.827 698.156,-623.926 760.713,-611.929"/>
<polygon fill="black" stroke="black" points="761.41,-615.359 770.572,-610.038 760.091,-608.484 761.41,-615.359"/>
</g>
<!-- static_deltapart_fetch_on_complete -->
<g id="node17" class="node"><title>static_deltapart_fetch_on_complete</title>
<ellipse fill="none" stroke="black" cx="483.985" cy="-594" rx="177.369" ry="18"/>
<text text-anchor="middle" x="483.985" y="-590.3" font-family="Times,serif" font-size="14.00">static_deltapart_fetch_on_complete</text>
</g>
<!-- process_one_static_delta&#45;&gt;static_deltapart_fetch_on_complete -->
<g id="edge17" class="edge"><title>process_one_static_delta&#45;&gt;static_deltapart_fetch_on_complete</title>
<path fill="none" stroke="black" stroke-dasharray="1,5" d="M483.985,-647.697C483.985,-639.983 483.985,-630.712 483.985,-622.112"/>
<polygon fill="black" stroke="black" points="487.485,-622.104 483.985,-612.104 480.485,-622.104 487.485,-622.104"/>
</g>
<!-- queue_scan_one_metadata_object_c -->
<g id="node14" class="node"><title>queue_scan_one_metadata_object_c</title>
<ellipse fill="none" stroke="black" cx="362.985" cy="-306" rx="179.268" ry="18"/>
<text text-anchor="middle" x="362.985" y="-302.3" font-family="Times,serif" font-size="14.00">queue_scan_one_metadata_object_c</text>
</g>
<!-- queue_scan_one_metadata_object&#45;&gt;queue_scan_one_metadata_object_c -->
<g id="edge19" class="edge"><title>queue_scan_one_metadata_object&#45;&gt;queue_scan_one_metadata_object_c</title>
<path fill="none" stroke="black" d="M172.425,-647.592C177.393,-620.896 185.985,-568.188 185.985,-523 185.985,-523 185.985,-523 185.985,-449 185.985,-387.805 251.15,-348.593 302.4,-327.216"/>
<polygon fill="black" stroke="black" points="303.823,-330.417 311.789,-323.431 301.206,-323.924 303.823,-330.417"/>
</g>
<!-- enqueue_one_object_request -->
<g id="node7" class="node"><title>enqueue_one_object_request</title>
<ellipse fill="none" stroke="black" cx="672.985" cy="-522" rx="145.674" ry="18"/>
<text text-anchor="middle" x="672.985" y="-518.3" font-family="Times,serif" font-size="14.00">enqueue_one_object_request</text>
</g>
<!-- enqueue_one_object_request&#45;&gt;content_fetch_on_complete -->
<g id="edge5" class="edge"><title>enqueue_one_object_request&#45;&gt;content_fetch_on_complete</title>
<path fill="none" stroke="black" stroke-dasharray="1,5" d="M715.197,-504.765C741.404,-494.685 775.277,-481.657 803.115,-470.95"/>
<polygon fill="black" stroke="black" points="804.61,-474.125 812.687,-467.268 802.097,-467.592 804.61,-474.125"/>
</g>
<!-- meta_fetch_on_complete -->
<g id="node8" class="node"><title>meta_fetch_on_complete</title>
<ellipse fill="none" stroke="black" cx="479.985" cy="-450" rx="126.978" ry="18"/>
<text text-anchor="middle" x="479.985" y="-446.3" font-family="Times,serif" font-size="14.00">meta_fetch_on_complete</text>
</g>
<!-- enqueue_one_object_request&#45;&gt;meta_fetch_on_complete -->
<g id="edge6" class="edge"><title>enqueue_one_object_request&#45;&gt;meta_fetch_on_complete</title>
<path fill="none" stroke="black" stroke-dasharray="1,5" d="M623.178,-505.028C593.924,-494.841 557.193,-481.564 528.217,-470.721"/>
<polygon fill="black" stroke="black" points="529.302,-467.39 518.71,-467.145 526.837,-473.942 529.302,-467.39"/>
</g>
<!-- meta_fetch_on_complete&#45;&gt;enqueue_one_object_request -->
<g id="edge11" class="edge"><title>meta_fetch_on_complete&#45;&gt;enqueue_one_object_request</title>
<path fill="none" stroke="black" d="M529.034,-466.708C558.157,-476.841 594.889,-490.112 623.998,-500.996"/>
<polygon fill="black" stroke="black" points="622.963,-504.346 633.556,-504.588 625.426,-497.794 622.963,-504.346"/>
</g>
<!-- meta_fetch_on_complete&#45;&gt;on_metadata_written -->
<g id="edge12" class="edge"><title>meta_fetch_on_complete&#45;&gt;on_metadata_written</title>
<path fill="none" stroke="black" stroke-dasharray="1,5" d="M452.258,-432.411C436.375,-422.909 416.263,-410.876 399.15,-400.637"/>
<polygon fill="black" stroke="black" points="400.892,-397.601 390.513,-395.47 397.298,-403.608 400.892,-397.601"/>
</g>
<!-- ensure_idle_queued -->
<g id="node9" class="node"><title>ensure_idle_queued</title>
<ellipse fill="none" stroke="black" cx="390.985" cy="-234" rx="103.182" ry="18"/>
<text text-anchor="middle" x="390.985" y="-230.3" font-family="Times,serif" font-size="14.00">ensure_idle_queued</text>
</g>
<!-- idle_worker -->
<g id="node10" class="node"><title>idle_worker</title>
<ellipse fill="none" stroke="black" cx="401.985" cy="-162" rx="65.7887" ry="18"/>
<text text-anchor="middle" x="401.985" y="-158.3" font-family="Times,serif" font-size="14.00">idle_worker</text>
</g>
<!-- ensure_idle_queued&#45;&gt;idle_worker -->
<g id="edge7" class="edge"><title>ensure_idle_queued&#45;&gt;idle_worker</title>
<path fill="none" stroke="black" stroke-dasharray="1,5" d="M393.704,-215.697C394.916,-207.983 396.373,-198.712 397.724,-190.112"/>
<polygon fill="black" stroke="black" points="401.202,-190.526 399.297,-180.104 394.287,-189.44 401.202,-190.526"/>
</g>
<!-- scan_one_metadata_object_c -->
<g id="node12" class="node"><title>scan_one_metadata_object_c</title>
<ellipse fill="none" stroke="black" cx="422.985" cy="-90" rx="146.474" ry="18"/>
<text text-anchor="middle" x="422.985" y="-86.3" font-family="Times,serif" font-size="14.00">scan_one_metadata_object_c</text>
</g>
<!-- idle_worker&#45;&gt;scan_one_metadata_object_c -->
<g id="edge10" class="edge"><title>idle_worker&#45;&gt;scan_one_metadata_object_c</title>
<path fill="none" stroke="black" d="M407.176,-143.697C409.516,-135.898 412.332,-126.509 414.936,-117.829"/>
<polygon fill="black" stroke="black" points="418.333,-118.688 417.854,-108.104 411.628,-116.677 418.333,-118.688"/>
</g>
<!-- fetch_revision -->
<g id="node11" class="node"><title>fetch_revision</title>
<ellipse fill="none" stroke="black" cx="379.985" cy="-882" rx="76.8869" ry="18"/>
<text text-anchor="middle" x="379.985" y="-878.3" font-family="Times,serif" font-size="14.00">fetch_revision</text>
</g>
<!-- fetch_revision&#45;&gt;delta_superblock_fetch_on_complete -->
<g id="edge8" class="edge"><title>fetch_revision&#45;&gt;delta_superblock_fetch_on_complete</title>
<path fill="none" stroke="black" stroke-dasharray="1,5" d="M379.985,-863.697C379.985,-855.983 379.985,-846.712 379.985,-838.112"/>
<polygon fill="black" stroke="black" points="383.485,-838.104 379.985,-828.104 376.485,-838.104 383.485,-838.104"/>
</g>
<!-- fetch_revision&#45;&gt;delta_superblock_process -->
<g id="edge9" class="edge"><title>fetch_revision&#45;&gt;delta_superblock_process</title>
<path fill="none" stroke="black" d="M443.895,-871.792C493.478,-863.187 556.327,-848.566 571.985,-828 581.677,-815.27 581.078,-805.165 571.985,-792 560.308,-775.093 542.49,-763.574 523.438,-755.728"/>
<polygon fill="black" stroke="black" points="524.599,-752.425 514.008,-752.163 522.124,-758.973 524.599,-752.425"/>
</g>
<!-- scan_one_metadata_object_c&#45;&gt;enqueue_one_object_request -->
<g id="edge24" class="edge"><title>scan_one_metadata_object_c&#45;&gt;enqueue_one_object_request</title>
<path fill="none" stroke="black" d="M490.063,-106.028C552.173,-124.372 634.985,-162.121 634.985,-233 634.985,-379 634.985,-379 634.985,-379 634.985,-420.367 650.22,-466.278 661.397,-494.395"/>
<polygon fill="black" stroke="black" points="658.264,-495.981 665.295,-503.907 664.741,-493.327 658.264,-495.981"/>
</g>
<!-- scan_commit_object -->
<g id="node18" class="node"><title>scan_commit_object</title>
<ellipse fill="none" stroke="black" cx="309.985" cy="-18" rx="105.881" ry="18"/>
<text text-anchor="middle" x="309.985" y="-14.3" font-family="Times,serif" font-size="14.00">scan_commit_object</text>
</g>
<!-- scan_one_metadata_object_c&#45;&gt;scan_commit_object -->
<g id="edge25" class="edge"><title>scan_one_metadata_object_c&#45;&gt;scan_commit_object</title>
<path fill="none" stroke="black" d="M395.919,-72.2333C380.824,-62.8824 361.84,-51.1225 345.557,-41.0357"/>
<polygon fill="black" stroke="black" points="347.175,-37.9207 336.83,-35.6299 343.488,-43.8715 347.175,-37.9207"/>
</g>
<!-- scan_dirtree_object -->
<g id="node19" class="node"><title>scan_dirtree_object</title>
<ellipse fill="none" stroke="black" cx="596.985" cy="-18" rx="102.882" ry="18"/>
<text text-anchor="middle" x="596.985" y="-14.3" font-family="Times,serif" font-size="14.00">scan_dirtree_object</text>
</g>
<!-- scan_one_metadata_object_c&#45;&gt;scan_dirtree_object -->
<g id="edge26" class="edge"><title>scan_one_metadata_object_c&#45;&gt;scan_dirtree_object</title>
<path fill="none" stroke="black" d="M463.78,-72.5881C489.098,-62.4029 521.769,-49.2592 548.419,-38.538"/>
<polygon fill="black" stroke="black" points="549.969,-41.6871 557.94,-34.7077 547.357,-35.1929 549.969,-41.6871"/>
</g>
<!-- on_metadata_written&#45;&gt;queue_scan_one_metadata_object_c -->
<g id="edge13" class="edge"><title>on_metadata_written&#45;&gt;queue_scan_one_metadata_object_c</title>
<path fill="none" stroke="black" d="M362.985,-359.697C362.985,-351.983 362.985,-342.712 362.985,-334.112"/>
<polygon fill="black" stroke="black" points="366.485,-334.104 362.985,-324.104 359.485,-334.104 366.485,-334.104"/>
</g>
<!-- queue_scan_one_metadata_object_c&#45;&gt;ensure_idle_queued -->
<g id="edge20" class="edge"><title>queue_scan_one_metadata_object_c&#45;&gt;ensure_idle_queued</title>
<path fill="none" stroke="black" d="M369.906,-287.697C373.06,-279.813 376.863,-270.304 380.366,-261.546"/>
<polygon fill="black" stroke="black" points="383.679,-262.689 384.143,-252.104 377.18,-260.089 383.679,-262.689"/>
</g>
<!-- process_one_static_delta_fallback&#45;&gt;enqueue_one_object_request -->
<g id="edge18" class="edge"><title>process_one_static_delta_fallback&#45;&gt;enqueue_one_object_request</title>
<path fill="none" stroke="black" d="M807.275,-576.411C782.198,-566.437 750.109,-553.674 723.587,-543.126"/>
<polygon fill="black" stroke="black" points="724.677,-539.793 714.091,-539.349 722.09,-546.297 724.677,-539.793"/>
</g>
<!-- static_deltapart_fetch_on_complete&#45;&gt;on_static_delta_written -->
<g id="edge27" class="edge"><title>static_deltapart_fetch_on_complete&#45;&gt;on_static_delta_written</title>
<path fill="none" stroke="black" stroke-dasharray="1,5" d="M460.988,-576.055C448.736,-567.027 433.488,-555.792 420.182,-545.987"/>
<polygon fill="black" stroke="black" points="421.897,-542.903 411.77,-539.789 417.744,-548.539 421.897,-542.903"/>
</g>
<!-- scan_commit_object&#45;&gt;queue_scan_one_metadata_object_c -->
<g id="edge21" class="edge"><title>scan_commit_object&#45;&gt;queue_scan_one_metadata_object_c</title>
<path fill="none" stroke="black" d="M291.819,-35.776C282.776,-45.3872 272.772,-58.2516 267.985,-72 241.63,-147.692 237.634,-183.341 278.985,-252 286.792,-264.962 299.116,-275.265 311.943,-283.209"/>
<polygon fill="black" stroke="black" points="310.442,-286.383 320.855,-288.336 313.932,-280.315 310.442,-286.383"/>
</g>
<!-- scan_dirtree_object&#45;&gt;enqueue_one_object_request -->
<g id="edge22" class="edge"><title>scan_dirtree_object&#45;&gt;enqueue_one_object_request</title>
<path fill="none" stroke="black" d="M613.103,-35.8068C635.412,-60.9134 672.985,-110.669 672.985,-161 672.985,-379 672.985,-379 672.985,-379 672.985,-419.004 672.985,-465.347 672.985,-493.92"/>
<polygon fill="black" stroke="black" points="669.485,-493.951 672.985,-503.951 676.485,-493.951 669.485,-493.951"/>
</g>
<!-- scan_dirtree_object&#45;&gt;queue_scan_one_metadata_object_c -->
<g id="edge23" class="edge"><title>scan_dirtree_object&#45;&gt;queue_scan_one_metadata_object_c</title>
<path fill="none" stroke="black" d="M595.2,-36.3028C589.802,-79.4831 569.678,-192.763 502.985,-252 485.966,-267.116 464.205,-278.093 442.939,-285.993"/>
<polygon fill="black" stroke="black" points="441.494,-282.791 433.221,-289.41 443.816,-289.394 441.494,-282.791"/>
</g>
<!-- ostree_repo_pull_with_options -->
<g id="node20" class="node"><title>ostree_repo_pull_with_options</title>
<ellipse fill="none" stroke="black" cx="211.985" cy="-1026" rx="152.973" ry="18"/>
<text text-anchor="middle" x="211.985" y="-1022.3" font-family="Times,serif" font-size="14.00">ostree_repo_pull_with_options</text>
</g>
<!-- ostree_repo_pull_with_options&#45;&gt;queue_scan_one_metadata_object -->
<g id="edge30" class="edge"><title>ostree_repo_pull_with_options&#45;&gt;queue_scan_one_metadata_object</title>
<path fill="none" stroke="black" d="M203.283,-1008.02C190.719,-981.874 168.985,-929.88 168.985,-883 168.985,-883 168.985,-883 168.985,-809 168.985,-768.996 168.985,-722.653 168.985,-694.08"/>
<polygon fill="black" stroke="black" points="172.485,-694.049 168.985,-684.049 165.485,-694.049 172.485,-694.049"/>
</g>
<!-- ostree_repo_pull_with_options&#45;&gt;fetch_revision -->
<g id="edge28" class="edge"><title>ostree_repo_pull_with_options&#45;&gt;fetch_revision</title>
<path fill="none" stroke="black" d="M210.975,-1007.76C210.774,-988.052 213.489,-955.961 230.985,-936 249.843,-914.485 278.036,-901.704 304.84,-894.111"/>
<polygon fill="black" stroke="black" points="305.848,-897.465 314.632,-891.542 304.072,-890.694 305.848,-897.465"/>
</g>
<!-- revision_fetch_on_complete -->
<g id="node21" class="node"><title>revision_fetch_on_complete</title>
<ellipse fill="none" stroke="black" cx="379.985" cy="-954" rx="140.275" ry="18"/>
<text text-anchor="middle" x="379.985" y="-950.3" font-family="Times,serif" font-size="14.00">revision_fetch_on_complete</text>
</g>
<!-- ostree_repo_pull_with_options&#45;&gt;revision_fetch_on_complete -->
<g id="edge29" class="edge"><title>ostree_repo_pull_with_options&#45;&gt;revision_fetch_on_complete</title>
<path fill="none" stroke="black" stroke-dasharray="1,5" d="M251.374,-1008.59C275.281,-998.627 305.98,-985.835 331.389,-975.248"/>
<polygon fill="black" stroke="black" points="332.959,-978.386 340.843,-971.309 330.266,-971.925 332.959,-978.386"/>
</g>
<!-- revision_fetch_on_complete&#45;&gt;fetch_revision -->
<g id="edge31" class="edge"><title>revision_fetch_on_complete&#45;&gt;fetch_revision</title>
<path fill="none" stroke="black" d="M379.985,-935.697C379.985,-927.983 379.985,-918.712 379.985,-910.112"/>
<polygon fill="black" stroke="black" points="383.485,-910.104 379.985,-900.104 376.485,-910.104 383.485,-910.104"/>
</g>
</g>
</svg>
